<svg xmlns="http://www.w3.org/2000/svg" width="21" height="20" fill="none" class="color-white"><path fill="currentColor" d="M10.35.208C4.773.208.249 4.703.249 10.248c0 4.435 2.895 8.197 6.911 9.526.505.093.69-.217.69-.483 0-.24-.009-.87-.014-1.708-2.81.606-3.404-1.346-3.404-1.346-.458-1.16-1.121-1.469-1.121-1.469-.919-.623.068-.61.068-.61 1.014.071 1.547 1.035 1.547 1.035.902 1.534 2.366 1.091 2.942.834.09-.649.352-1.092.641-1.343-2.243-.253-4.602-1.115-4.602-4.961a3.87 3.87 0 0 1 1.04-2.695c-.104-.254-.45-1.275.099-2.656 0 0 .849-.27 2.779 1.029a9.734 9.734 0 0 1 2.53-.338 9.757 9.757 0 0 1 2.53.339c1.928-1.299 2.775-1.029 2.775-1.029.551 1.383.205 2.403.101 2.656.648.703 1.039 1.599 1.039 2.695 0 3.857-2.362 4.705-4.613 4.954.363.31.686.922.686 1.859 0 1.342-.013 2.425-.013 2.754 0 .268.182.58.695.482 4.01-1.33 6.902-5.091 6.902-9.525 0-5.545-4.524-10.04-10.105-10.04Z"/></svg>