<svg xmlns="http://www.w3.org/2000/svg" width="20" height="12" fill="none"><path fill="currentColor" fill-rule="evenodd" d="M19.122.86c.131-.435 0-.755-.627-.755h-2.073c-.527 0-.77.276-.901.58 0 0-1.054 2.543-2.548 4.195-.482.478-.702.63-.966.63-.131 0-.322-.152-.322-.587V.86c0-.521-.153-.754-.592-.754H7.836c-.33 0-.528.243-.528.472 0 .494.747.608.824 2v3.02c0 .662-.12.782-.384.782-.703 0-2.412-2.554-3.426-5.476-.198-.568-.398-.798-.927-.798H1.322c-.592 0-.71.276-.71.58 0 .544.702 3.239 3.27 6.803C5.597 9.92 8.01 11.24 10.205 11.24c1.318 0 1.481-.293 1.481-.798v-1.84c0-.586.125-.702.542-.702.307 0 .834.152 2.064 1.325 1.405 1.391 1.637 2.015 2.427 2.015h2.073c.592 0 .888-.293.718-.871-.187-.577-.858-1.413-1.749-2.404-.483-.565-1.207-1.174-1.427-1.478-.307-.391-.22-.565 0-.913 0 0 2.525-3.52 2.789-4.716Z" clip-rule="evenodd"/></svg>