<svg width="25" height="20" viewBox="0 0 25 20" fill="none" xmlns="http://www.w3.org/2000/svg">
    <rect x="0.5" y="0.5" width="23.9805" height="19" stroke="#FB7373"/>
    <path d="M7.33852 7V14H6.03852V8.09H4.55852V7H7.33852ZM11.9071 9.68C12.3671 9.68 12.7804 9.77 13.1471 9.95C13.5138 10.1233 13.8004 10.3733 14.0071 10.7C14.2138 11.0267 14.3171 11.4033 14.3171 11.83C14.3171 12.2833 14.2038 12.6833 13.9771 13.03C13.7504 13.37 13.4438 13.6333 13.0571 13.82C12.6704 14.0067 12.2371 14.1 11.7571 14.1C10.7971 14.1 10.0504 13.8 9.51711 13.2C8.99044 12.6 8.72711 11.74 8.72711 10.62C8.72711 9.83333 8.87044 9.16333 9.15711 8.61C9.44378 8.05 9.84378 7.62667 10.3571 7.34C10.8771 7.04667 11.4771 6.9 12.1571 6.9C12.5171 6.9 12.8538 6.94 13.1671 7.02C13.4871 7.09333 13.7638 7.20333 13.9971 7.35L13.5171 8.33C13.1704 8.10333 12.7271 7.99 12.1871 7.99C11.5138 7.99 10.9871 8.19667 10.6071 8.61C10.2271 9.02333 10.0371 9.62 10.0371 10.4V10.41C10.2438 10.17 10.5071 9.99 10.8271 9.87C11.1471 9.74333 11.5071 9.68 11.9071 9.68ZM11.6871 13.08C12.0938 13.08 12.4238 12.9733 12.6771 12.76C12.9304 12.54 13.0571 12.25 13.0571 11.89C13.0571 11.5233 12.9304 11.2333 12.6771 11.02C12.4238 10.8067 12.0838 10.7 11.6571 10.7C11.2371 10.7 10.8938 10.8133 10.6271 11.04C10.3671 11.2667 10.2371 11.5533 10.2371 11.9C10.2371 12.24 10.3638 12.5233 10.6171 12.75C10.8771 12.97 11.2338 13.08 11.6871 13.08ZM19.8655 11H18.0955V12.75H17.0255V11H15.2555V10H17.0255V8.25H18.0955V10H19.8655V11Z" fill="#FB7373"/>
</svg>
