<svg width="16" height="12" viewBox="0 0 16 12" fill="none" xmlns="http://www.w3.org/2000/svg">
<g clip-path="url(#clip0_12291_242237)">
<path fill-rule="evenodd" clip-rule="evenodd" d="M0 0H16V12H0V0Z" fill="#00ABC2"/>
<path fill-rule="evenodd" clip-rule="evenodd" d="M1.88734 11.675C1.96984 11.755 1.94234 11.8875 2.16984 11.87C2.51484 11.87 2.52484 11.66 2.52484 11.5125C2.52484 11.365 2.00734 11.16 1.98234 10.9425C1.95734 10.725 2.10234 10.6675 2.22234 10.6675C2.33984 10.6675 2.42234 10.735 2.42234 10.795C2.42234 10.855 2.36734 10.875 2.28234 10.875C2.19734 10.875 2.31984 10.8325 2.24734 10.8C2.17484 10.7675 2.12734 10.85 2.12734 10.9C2.12734 10.955 2.30734 10.97 2.42734 10.9325C2.45234 11.05 2.46234 11.0575 2.29484 11.2575C2.41484 11.18 2.42484 11.1625 2.55734 11.2075C2.42484 11.0925 2.52484 10.8625 2.52734 10.805C2.52984 10.7475 2.50234 10.6775 2.45234 10.6425C2.35484 10.555 2.14734 10.55 2.02234 10.6075C1.83984 10.6875 1.82984 10.9275 1.87734 11.0075L2.38234 11.5175C2.41734 11.5775 2.43234 11.7475 2.21734 11.755C1.99234 11.7725 1.91234 11.465 1.87234 11.3625C1.81984 11.475 1.75984 11.7825 1.53234 11.765C1.31734 11.7575 1.27734 11.59 1.31234 11.5275L1.82984 11.0025C1.87984 10.9225 1.86984 10.6825 1.68734 10.6025C1.56234 10.545 1.35484 10.5525 1.25984 10.6375C1.20484 10.6725 1.17484 10.74 1.17984 10.8C1.18484 10.86 1.28234 11.0875 1.15234 11.2C1.28234 11.1575 1.29484 11.175 1.41484 11.25C1.24734 11.0525 1.25984 11.045 1.28234 10.925C1.40234 10.965 1.58234 10.95 1.58234 10.8975C1.58234 10.845 1.53234 10.7575 1.45984 10.7925C1.38984 10.8275 1.50984 10.87 1.42484 10.87C1.34234 10.87 1.28234 10.8525 1.28234 10.795C1.28234 10.7375 1.36484 10.6625 1.48484 10.6625C1.60484 10.6625 1.74734 10.7225 1.72234 10.94C1.69734 11.1575 1.17234 11.3925 1.17234 11.54C1.17234 11.69 1.20734 11.8675 1.55234 11.8675C1.77734 11.885 1.80484 11.7525 1.88734 11.6725V11.675Z" fill="#FFEC2D"/>
<path fill-rule="evenodd" clip-rule="evenodd" d="M1.86 8.58249C1.9425 8.50249 2.01 8.26749 2.235 8.28249C2.58 8.28249 2.71 8.47499 2.71 8.62249C2.71 8.76999 2.01 9.97249 1.985 10.19C1.96 10.4075 2.105 10.4675 2.2225 10.4675C2.3425 10.4675 2.425 10.4 2.425 10.3375C2.425 10.275 2.365 10.2625 2.2825 10.2625C2.2 10.2625 2.3175 10.305 2.2475 10.3375C2.1775 10.37 2.1275 10.2875 2.1275 10.235C2.1275 10.1825 2.3075 10.165 2.4275 10.205C2.45 10.0875 2.46 10.08 2.295 9.87999C2.415 9.95499 2.425 9.97499 2.5575 9.92999C2.425 10.045 2.5225 10.2725 2.5275 10.33C2.5325 10.3875 2.5025 10.46 2.45 10.495C2.355 10.5825 2.145 10.585 2.02 10.53C1.84 10.4475 1.83 10.21 1.8775 10.13L2.5575 8.66499C2.595 8.60499 2.5 8.40499 2.285 8.39749C2.06 8.37999 1.9825 8.61749 1.9425 8.71999L2.25 8.69499C2.25 8.69499 2.2625 8.74499 2.25 8.77499C2.14683 8.78253 2.04417 8.79588 1.9425 8.81499L1.93 8.96999H2.08L2.07 9.03999C2.07 9.03999 1.9425 9.02999 1.93 9.03999C1.9175 9.04749 1.905 9.19499 1.905 9.19499C1.905 9.19499 1.88 9.20499 1.855 9.20499C1.83 9.20499 1.805 9.19499 1.805 9.19499C1.805 9.19499 1.795 9.04749 1.7825 9.03999C1.77 9.02999 1.6425 9.03999 1.6425 9.03999L1.63 8.96999H1.7825L1.77 8.81499C1.77 8.81499 1.62 8.78499 1.4625 8.77499C1.4525 8.74499 1.4625 8.69749 1.4625 8.69749L1.77 8.71999C1.73 8.61749 1.6525 8.37999 1.4275 8.39499C1.2125 8.40499 1.1175 8.60499 1.1525 8.66499L1.8325 10.13C1.88 10.2075 1.87 10.4475 1.69 10.53C1.565 10.585 1.355 10.58 1.26 10.495C1.2075 10.46 1.1775 10.39 1.1825 10.3325C1.1875 10.275 1.2825 10.0425 1.1525 9.93249C1.285 9.97499 1.2975 9.95749 1.415 9.87999C1.25 10.08 1.26 10.0875 1.285 10.205C1.4025 10.165 1.5825 10.18 1.5825 10.235C1.5825 10.285 1.5325 10.3725 1.4625 10.3375C1.3925 10.3025 1.5125 10.2625 1.4275 10.2625C1.345 10.2625 1.285 10.2775 1.285 10.3375C1.285 10.3975 1.3675 10.4675 1.485 10.4675C1.6025 10.4675 1.7475 10.4075 1.725 10.1925C1.7 9.97499 1 8.76749 1 8.62249C1 8.47249 1.13 8.28499 1.475 8.28499C1.7 8.26749 1.7825 8.50249 1.8625 8.58249H1.86Z" fill="#FFEC2D"/>
<path fill-rule="evenodd" clip-rule="evenodd" d="M1.86 7.98498C1.9425 8.06498 2.01 8.29998 2.235 8.28498C2.58 8.28498 2.71 8.09248 2.71 7.94498C2.71 7.79748 2.01 6.59498 1.985 6.37748C1.96 6.15998 2.105 6.09998 2.2225 6.09998C2.3425 6.09998 2.425 6.16748 2.425 6.22998C2.425 6.29248 2.365 6.30498 2.2825 6.30498C2.2 6.30498 2.3175 6.26498 2.2475 6.22998C2.1775 6.19498 2.1275 6.27998 2.1275 6.33248C2.1275 6.38498 2.3075 6.40248 2.4275 6.36248C2.45 6.47998 2.46 6.48748 2.295 6.68748C2.415 6.61248 2.425 6.59248 2.5575 6.63748C2.425 6.52248 2.5225 6.29498 2.5275 6.23748C2.5325 6.17998 2.5025 6.10748 2.45 6.07248C2.355 5.98748 2.145 5.98248 2.02 6.03748C1.84 6.11998 1.83 6.35748 1.8775 6.43748L2.5575 7.89998C2.595 7.95998 2.5 8.15998 2.285 8.16748C2.06 8.18498 1.9825 7.94748 1.9425 7.84498L2.25 7.86998C2.25 7.86998 2.2625 7.81998 2.25 7.78998C2.14683 7.78244 2.04417 7.76909 1.9425 7.74998L1.93 7.59498H2.08L2.07 7.52498C2.07 7.52498 1.9425 7.53498 1.93 7.52498C1.9175 7.51748 1.905 7.36998 1.905 7.36998C1.905 7.36998 1.88 7.35998 1.855 7.35998C1.83 7.35998 1.805 7.36998 1.805 7.36998C1.805 7.36998 1.795 7.51748 1.7825 7.52498C1.77 7.53498 1.6425 7.52498 1.6425 7.52498L1.63 7.59498H1.7825L1.77 7.74998C1.77 7.74998 1.62 7.77998 1.4625 7.78998C1.4525 7.81998 1.4625 7.86748 1.4625 7.86748L1.77 7.84498C1.73 7.94748 1.6525 8.18498 1.4275 8.16998C1.2125 8.15998 1.1175 7.95998 1.1525 7.89998L1.8325 6.43748C1.88 6.35748 1.87 6.11998 1.69 6.03748C1.565 5.98248 1.355 5.98748 1.26 6.07248C1.2075 6.10748 1.1775 6.17748 1.1825 6.23498C1.1875 6.29248 1.2825 6.52248 1.1525 6.63498C1.285 6.59248 1.2975 6.60998 1.415 6.68748C1.25 6.48748 1.26 6.47998 1.285 6.36248C1.4025 6.40248 1.5825 6.38748 1.5825 6.33248C1.5825 6.28248 1.5325 6.19498 1.4625 6.22998C1.3925 6.26498 1.5125 6.30498 1.4275 6.30498C1.345 6.30498 1.285 6.28998 1.285 6.22998C1.285 6.16998 1.3675 6.09998 1.485 6.09998C1.6025 6.09998 1.7475 6.15998 1.725 6.37498C1.7 6.59248 1 7.79998 1 7.94498C1 8.09498 1.13 8.28248 1.475 8.28248C1.7 8.29998 1.7825 8.06498 1.8625 7.98498H1.86Z" fill="#FFEC2D"/>
<path fill-rule="evenodd" clip-rule="evenodd" d="M1.86 4.01498C1.9425 3.93498 2.01 3.69998 2.235 3.71498C2.58 3.71498 2.71 3.90748 2.71 4.05498C2.71 4.20248 2.01 5.40498 1.985 5.62498C1.96 5.83998 2.105 5.89998 2.2225 5.89998C2.3425 5.89998 2.425 5.83248 2.425 5.77248C2.425 5.71248 2.365 5.69248 2.2825 5.69248C2.2 5.69248 2.3175 5.73748 2.2475 5.77248C2.1775 5.80748 2.1275 5.71998 2.1275 5.66748C2.1275 5.61748 2.3075 5.59748 2.4275 5.63748C2.45 5.51998 2.46 5.51248 2.295 5.31248C2.415 5.38998 2.425 5.40748 2.5575 5.36248C2.425 5.47748 2.5225 5.70748 2.5275 5.76248C2.5325 5.81748 2.5025 5.89248 2.45 5.92748C2.355 6.01498 2.145 6.01748 2.02 5.96248C1.84 5.87998 1.83 5.64248 1.8775 5.56248L2.5575 4.09998C2.595 4.03998 2.5 3.83998 2.285 3.83248C2.06 3.81498 1.9825 4.05248 1.9425 4.15498L2.25 4.12998C2.25 4.12998 2.2625 4.17998 2.25 4.20998C2.09 4.21998 1.9425 4.24998 1.9425 4.24998L1.93 4.40498H2.08L2.07 4.47498C2.07 4.47498 1.9425 4.46748 1.93 4.47498C1.9175 4.48248 1.905 4.63248 1.905 4.63248C1.905 4.63248 1.88 4.63998 1.855 4.63998C1.83 4.63998 1.805 4.63248 1.805 4.63248C1.805 4.63248 1.795 4.48248 1.7825 4.47498C1.77 4.46748 1.6425 4.47498 1.6425 4.47498L1.63 4.40498H1.7825L1.77 4.24998C1.77 4.24998 1.62 4.21998 1.4625 4.20998C1.4525 4.17998 1.4625 4.13248 1.4625 4.13248L1.77 4.15498C1.73 4.05248 1.6525 3.81498 1.4275 3.82998C1.2125 3.83998 1.1175 4.03998 1.1525 4.09998L1.8325 5.56248C1.88 5.64248 1.87 5.87998 1.69 5.96248C1.565 6.01748 1.355 6.01248 1.26 5.92748C1.2075 5.89248 1.1775 5.82248 1.1825 5.76498C1.1875 5.70748 1.2825 5.47748 1.1525 5.36498C1.285 5.40748 1.2975 5.38998 1.415 5.31248C1.25 5.51248 1.26 5.51998 1.285 5.63748C1.4025 5.59748 1.5825 5.61498 1.5825 5.66748C1.5825 5.71748 1.5325 5.80498 1.4625 5.76998C1.3925 5.73748 1.5125 5.69498 1.4275 5.69498C1.345 5.69498 1.285 5.70998 1.285 5.76998C1.285 5.82998 1.3675 5.89998 1.485 5.89998C1.6025 5.89998 1.7475 5.83998 1.725 5.62498C1.7 5.40748 1 4.20248 1 4.05498C1 3.90748 1.13 3.71748 1.475 3.71748C1.7 3.69998 1.7825 3.93498 1.8625 4.01748L1.86 4.01498Z" fill="#FFEC2D"/>
<path fill-rule="evenodd" clip-rule="evenodd" d="M1.86 3.41748C1.9425 3.49748 2.01 3.73498 2.235 3.71748C2.58 3.71748 2.71 3.52498 2.71 3.37748C2.71 3.22998 2.01 2.02748 1.985 1.80998C1.96 1.59248 2.105 1.53248 2.2225 1.53248C2.3425 1.53248 2.425 1.60248 2.425 1.66248C2.425 1.72248 2.365 1.73998 2.2825 1.73998C2.2 1.73998 2.3175 1.69748 2.2475 1.66248C2.1775 1.62748 2.1275 1.71248 2.1275 1.76498C2.1275 1.81748 2.3075 1.83498 2.4275 1.79498C2.45 1.91248 2.46 1.91998 2.295 2.11998C2.415 2.04498 2.425 2.02498 2.5575 2.06998C2.425 1.95748 2.5225 1.72748 2.5275 1.66998C2.5325 1.61248 2.5025 1.53998 2.45 1.50498C2.355 1.41998 2.145 1.41498 2.02 1.47248C1.84 1.55248 1.83 1.79248 1.8775 1.86998L2.5575 3.33498C2.595 3.39498 2.5 3.59498 2.285 3.60498C2.06 3.61998 1.9825 3.38498 1.9425 3.27998L2.25 3.30498C2.25 3.30498 2.2625 3.25498 2.25 3.22498C2.14688 3.21819 2.04423 3.20567 1.9425 3.18748L1.93 3.02998H2.08L2.07 2.95998C2.07 2.95998 1.9425 2.96998 1.93 2.95998C1.9175 2.95248 1.905 2.80498 1.905 2.80498C1.905 2.80498 1.88 2.79498 1.855 2.79498C1.83 2.79498 1.805 2.80498 1.805 2.80498C1.805 2.80498 1.795 2.95248 1.7825 2.95998C1.77 2.96998 1.6425 2.95998 1.6425 2.95998L1.63 3.02998H1.7825L1.77 3.18748C1.77 3.18748 1.62 3.21498 1.4625 3.22498C1.4525 3.25748 1.4625 3.30498 1.4625 3.30498L1.77 3.27998C1.73 3.38498 1.6525 3.61998 1.4275 3.60498C1.2125 3.59498 1.1175 3.39498 1.1525 3.33498L1.8325 1.86998C1.88 1.79248 1.87 1.55248 1.69 1.46998C1.565 1.41498 1.355 1.41998 1.26 1.50498C1.2075 1.53998 1.1775 1.60998 1.1825 1.66748C1.1875 1.72498 1.2825 1.95748 1.1525 2.06748C1.285 2.02498 1.2975 2.04248 1.415 2.11998C1.25 1.91998 1.26 1.91248 1.285 1.79498C1.405 1.83498 1.5825 1.81998 1.5825 1.76498C1.5825 1.71498 1.5325 1.62748 1.4625 1.66248C1.3925 1.69748 1.5125 1.73998 1.4275 1.73998C1.345 1.73998 1.285 1.72248 1.285 1.66248C1.285 1.60248 1.3675 1.53248 1.485 1.53248C1.6025 1.53248 1.75 1.59248 1.725 1.80748C1.7 2.02498 1 3.23248 1 3.37748C1 3.52748 1.13 3.71748 1.475 3.71748C1.7 3.73498 1.7825 3.49748 1.8625 3.41748H1.86Z" fill="#FFEC2D"/>
<path fill-rule="evenodd" clip-rule="evenodd" d="M1.88734 0.324992C1.96984 0.244992 1.94234 0.112492 2.16984 0.129992C2.51484 0.129992 2.52484 0.339992 2.52484 0.487492C2.52484 0.634992 2.00734 0.839992 1.98234 1.05749C1.95734 1.27499 2.10234 1.33249 2.22234 1.33249C2.33984 1.33249 2.42234 1.26499 2.42234 1.20499C2.42234 1.14499 2.36734 1.12499 2.28234 1.12499C2.19734 1.12499 2.31984 1.16749 2.24734 1.19999C2.17484 1.23249 2.12734 1.14999 2.12734 1.09999C2.12734 1.04499 2.30734 1.02749 2.42734 1.06749C2.45234 0.949992 2.46234 0.942492 2.29484 0.742492C2.41484 0.819992 2.42484 0.837492 2.55734 0.792492C2.42484 0.907492 2.52484 1.13749 2.52734 1.19499C2.52984 1.25249 2.50234 1.32249 2.45234 1.35749C2.35234 1.44999 2.14484 1.44999 2.01984 1.39499C1.83734 1.31499 1.82734 1.07499 1.87484 0.994992L2.38234 0.482492C2.41734 0.422492 2.43234 0.252492 2.21734 0.244992C1.99234 0.227492 1.91234 0.534992 1.87234 0.637492C1.81984 0.524992 1.75984 0.214992 1.53234 0.232492C1.31734 0.239992 1.27734 0.407492 1.31234 0.469992L1.82984 0.994992C1.87984 1.07499 1.86984 1.31499 1.68734 1.39499C1.56234 1.45249 1.35484 1.44749 1.25984 1.35999C1.20484 1.32499 1.17484 1.25749 1.17984 1.19749C1.18484 1.13749 1.28234 0.909992 1.15234 0.797492C1.28234 0.839992 1.29484 0.822492 1.41234 0.747492C1.24734 0.944992 1.25984 0.952492 1.28234 1.07249C1.40234 1.03249 1.58234 1.04749 1.58234 1.09999C1.58234 1.15249 1.53234 1.23999 1.45984 1.20499C1.38984 1.16999 1.50984 1.12749 1.42484 1.12749C1.34234 1.12749 1.28234 1.14499 1.28234 1.20249C1.28234 1.25999 1.36484 1.33499 1.48484 1.33499C1.60484 1.33499 1.74734 1.27499 1.72234 1.05749C1.69734 0.839992 1.17234 0.604992 1.17234 0.457492C1.17234 0.307492 1.20734 0.129992 1.55234 0.129992C1.77734 0.112492 1.80484 0.244992 1.88734 0.324992V0.324992Z" fill="#FFEC2D"/>
<path d="M11.9023 4.39053C11.9023 3.29926 10.9688 2.41461 9.81736 2.41461C8.66588 2.41461 7.73242 3.29926 7.73242 4.39053C7.73242 5.4818 8.66588 6.36645 9.81736 6.36645C10.9688 6.36645 11.9023 5.4818 11.9023 4.39053Z" fill="#FFEC2D"/>
<path fill-rule="evenodd" clip-rule="evenodd" d="M9.71906 1.23621C9.69946 1.23621 9.60636 1.89281 9.57206 2.03981C9.53776 2.37056 10.0131 2.35831 9.93466 2.02756L9.71906 1.23376V1.23621ZM9.88566 7.60129C9.90281 7.60129 10.0449 6.95204 10.0915 6.80749C10.1478 6.48164 9.67251 6.46449 9.72396 6.79769L9.88566 7.60129V7.60129ZM6.56348 4.3771C6.56348 4.39425 7.24702 4.53145 7.39892 4.57555C7.74192 4.6319 7.76642 4.18355 7.41362 4.23255L6.56348 4.37955V4.3771ZM13.2201 4.4555C13.2201 4.43835 12.5292 4.32565 12.3749 4.28645C12.0294 4.2448 12.027 4.69315 12.3749 4.6319L13.2201 4.4555ZM7.26417 2.29461C7.25192 2.30686 7.70272 2.81646 7.79337 2.94141C8.02857 3.18641 8.33972 2.84341 8.02857 2.67681L7.26417 2.29706V2.29461ZM12.4361 6.48409C12.4484 6.47184 11.9535 6.00145 11.8506 5.8863C11.5933 5.6609 11.3165 6.02595 11.6399 6.16805L12.4361 6.48654V6.48409ZM8.29562 1.58411C8.28092 1.59146 8.49162 2.22356 8.52592 2.37301C8.64352 2.68416 9.06982 2.48081 8.84932 2.21376L8.29807 1.58411H8.29562ZM11.3116 7.27789C11.3287 7.27054 11.1646 6.62619 11.1425 6.47674C11.047 6.15824 10.6084 6.32974 10.8069 6.61394L11.314 7.27544L11.3116 7.27789ZM12.0539 2.02511C12.0392 2.01286 11.4953 2.43181 11.363 2.51511C11.1009 2.73561 11.4561 3.03451 11.6374 2.74296L12.0539 2.02511ZM7.57042 6.77074C7.58267 6.78299 8.15842 6.40324 8.29562 6.32729C8.57247 6.1264 8.24172 5.803 8.03837 6.0823L7.57287 6.77074H7.57042ZM6.71293 3.24031C6.70558 3.25501 7.30092 3.60046 7.43077 3.6911C7.73702 3.85035 7.91587 3.43386 7.56552 3.36771L6.71293 3.24031V3.24031ZM12.9286 5.6511C12.9359 5.6364 12.3651 5.25175 12.2426 5.15375C11.9486 4.97245 11.7403 5.3767 12.0858 5.4649L12.9286 5.6511V5.6511ZM10.9539 1.41506C10.9367 1.41016 10.5962 1.98836 10.5055 2.11331C10.5057 2.15321 10.5183 2.19206 10.5417 2.22441C10.5651 2.25675 10.598 2.28097 10.6358 2.29367C10.6736 2.30637 10.7145 2.30691 10.7526 2.29522C10.7908 2.28352 10.8243 2.26018 10.8485 2.22846L10.9539 1.41506ZM8.65332 7.40039C8.67047 7.40774 9.05267 6.85159 9.15067 6.73154C9.32951 6.44734 8.89587 6.26604 8.81502 6.59434L8.65332 7.40039V7.40039ZM6.75458 5.70255C6.76193 5.71725 7.44057 5.55555 7.59982 5.53105C7.93302 5.43795 7.74682 5.02635 7.45282 5.21745L6.75458 5.70255ZM12.931 3.18641C12.9261 3.17171 12.2377 3.28686 12.0784 3.30156C11.7354 3.37261 11.8947 3.79645 12.2009 3.62495L12.931 3.18641V3.18641Z" fill="#FFEC2D"/>
<path fill-rule="evenodd" clip-rule="evenodd" d="M10.3954 1.27784C10.3782 1.27539 10.1479 1.90014 10.0793 2.03734C9.97889 2.35584 10.4468 2.43424 10.4395 2.09614L10.3978 1.27539L10.3954 1.27784ZM9.20714 7.54737C9.22429 7.55227 9.50114 6.94222 9.57954 6.80747C9.70204 6.49877 9.24144 6.39097 9.22429 6.72662L9.20469 7.54737H9.20714ZM8.9695 1.33909C8.95235 1.34399 9.01605 2.00549 9.01605 2.15739C9.06259 2.48324 9.52074 2.37054 9.36884 2.06674L8.9695 1.33909V1.33909ZM10.6355 7.51062C10.6526 7.50817 10.6355 6.84422 10.6477 6.69232C10.6257 6.36157 10.1577 6.44487 10.29 6.75847L10.633 7.51062H10.6355ZM7.7886 1.88789C7.7739 1.89769 8.09975 2.48324 8.161 2.62289C8.3374 2.90953 8.71715 2.64004 8.4501 2.41219L7.7886 1.88789ZM11.8262 6.98142C11.8409 6.97162 11.5567 6.36402 11.5077 6.22192C11.3533 5.92547 10.9564 6.17047 11.2039 6.41302L11.8262 6.98142ZM6.9262 2.71108C6.9164 2.72578 7.44315 3.16188 7.5534 3.27458C7.82535 3.48038 8.0777 3.09818 7.7445 2.97813L6.9262 2.71108ZM12.6641 6.13372C12.6739 6.11902 12.1814 5.64862 12.0785 5.53102C11.8237 5.30807 11.5444 5.67312 11.8678 5.81522L12.6641 6.13372ZM6.54891 3.73763C6.54401 3.75478 7.19325 4.00223 7.33535 4.07328C7.66365 4.18353 7.769 3.74498 7.4113 3.73518L6.54891 3.73763V3.73763ZM13.1002 5.15373C13.1075 5.13903 12.4779 4.84993 12.3407 4.76908C12.0222 4.63678 11.8825 5.06798 12.2378 5.10228L13.1002 5.15373ZM6.52686 4.99938C6.52931 5.01408 7.23 5.00428 7.38925 5.01653C7.73715 4.99938 7.65385 4.55593 7.32065 4.67598L6.52686 4.99938ZM13.1467 3.89688C13.1467 3.87973 12.446 3.84298 12.2892 3.82093C11.9389 3.81603 11.9903 4.26438 12.3309 4.16393L13.1467 3.89443V3.89688ZM7.1271 6.30767C7.1369 6.32237 7.7641 6.02347 7.9111 5.96712C8.2149 5.80787 7.9356 5.44282 7.69305 5.69027L7.1271 6.30767ZM12.5734 2.57634C12.5636 2.56164 11.9193 2.81888 11.7649 2.86543C11.4489 3.00508 11.7012 3.38728 11.9609 3.15698L12.5734 2.57634V2.57634ZM8.1463 7.17497C8.161 7.18232 8.60935 6.67272 8.72205 6.56492C8.9352 6.30277 8.52605 6.07492 8.406 6.39342L8.1463 7.17497ZM11.5689 1.69189C11.5567 1.68209 11.0716 2.15984 10.9515 2.26029C10.7212 2.50774 11.1132 2.76253 11.2553 2.45384L11.5665 1.69189H11.5689Z" fill="#FFEC2D"/>
<path fill-rule="evenodd" clip-rule="evenodd" d="M6.9152 7.13304C6.9479 7.24343 6.95257 7.86166 7.61128 8.45781C8.26532 9.04954 9.38653 9.18202 9.38653 9.18202C9.38653 9.18202 9.3912 9.26592 9.31178 9.27033C9.23236 9.27917 8.84928 9.2041 8.65774 9.14669C8.47087 9.0937 8.30269 8.99655 8.28401 9.00096C8.26065 9.0098 8.22327 9.07162 8.16721 9.06279C8.11115 9.05396 7.84019 8.789 7.71873 8.71835C7.47578 8.51985 7.2607 8.2928 7.07871 8.04271C6.9479 7.844 6.9152 7.71152 6.87315 7.71152C6.83111 7.71152 6.67694 7.80867 6.67694 7.80867C6.67694 7.80867 6.53679 7.60996 6.41532 7.29201C6.28919 6.97407 6.3032 6.7886 6.33123 6.77535C6.36393 6.7621 6.36393 7.00939 6.45737 7.2346C6.5508 7.46423 6.68161 7.53488 6.68161 7.53488C6.68161 7.53488 6.59752 7.41566 6.53212 7.11979C6.46671 6.82392 6.43868 6.53689 6.4854 6.44857C6.53212 6.36025 6.57416 6.33376 6.57883 6.33817C6.58818 6.34701 6.49941 6.47507 6.56015 6.81509C6.62088 7.15512 6.78439 7.44215 6.82176 7.4289C6.85914 7.41566 6.7984 7.345 6.77505 7.14629C6.75169 6.94757 6.7984 6.82392 6.84979 6.80626C6.87315 6.7886 6.91052 7.02706 6.9152 7.13304V7.13304ZM6.45737 7.69827C6.33123 7.58788 6.13502 7.20369 6.09298 7.22136C6.04626 7.24343 6.41065 7.79542 6.42 7.83958C6.42934 7.89257 6.50876 8.04271 6.44803 8.02063C6.38729 7.99855 5.95282 7.5658 6.00421 7.6497C6.0556 7.7336 6.38262 8.11337 6.36393 8.13545C6.34525 8.15753 6.09298 7.92348 6.08363 7.9544C6.07896 7.98089 6.33123 8.21052 6.32656 8.23701C6.32189 8.26351 6.16305 8.09129 6.16305 8.12662C6.16305 8.16194 6.32656 8.33416 6.32656 8.36066C6.32656 8.38715 6.18641 8.23701 6.23313 8.3165C6.27517 8.40482 6.39664 8.47989 6.39196 8.50638C6.38729 8.53288 6.28919 8.47106 6.28919 8.4843C6.28919 8.49755 6.47138 8.55937 6.51343 8.60795C6.56015 8.65652 6.85914 8.9833 7.08338 9.14669C7.30762 9.31008 7.95231 9.59711 7.99903 9.59711C8.04108 9.59711 8.10648 9.50879 8.09247 9.47347C8.07845 9.43814 7.44777 9.23501 7.27492 9.08487C7.09739 8.93473 6.6676 8.57262 6.63022 8.55496C6.59752 8.53288 6.49941 8.54171 6.49941 8.51963C6.49941 8.49755 6.62555 8.53288 6.61621 8.51963C6.61154 8.50638 6.44335 8.43573 6.44803 8.42248C6.45737 8.40923 6.56482 8.44898 6.56482 8.43573C6.56482 8.42248 6.36861 8.32091 6.37795 8.29884C6.38262 8.27676 6.52277 8.36066 6.52277 8.34299C6.52277 8.33416 6.3359 8.21052 6.34058 8.18844C6.34525 8.16636 6.4854 8.28559 6.48073 8.25909C6.47606 8.2326 6.36861 8.08246 6.36861 8.06479C6.36861 8.04271 6.53679 8.21493 6.55547 8.17961C6.56482 8.1487 6.49474 7.86166 6.49941 7.85725C6.50409 7.85283 6.62555 7.91907 6.64424 7.87932C6.6676 7.83517 6.56015 7.77776 6.45737 7.69827V7.69827ZM8.61103 9.8709C8.52226 9.88414 8.48022 9.85323 8.53161 9.78258C8.60168 9.78258 8.78855 9.72517 8.85395 9.69868C8.91936 9.67218 8.98943 9.63685 9.0455 9.58828C9.10156 9.53087 9.13893 9.61919 9.10623 9.66777C9.08287 9.69868 8.97542 9.75608 8.896 9.787C8.77921 9.82232 8.67643 9.87531 8.61103 9.8709ZM9.19499 9.64569C9.13426 9.58386 9.18565 9.5397 9.27441 9.49113C9.40522 9.42489 9.36784 9.33216 9.53602 9.25709C9.61077 9.21293 10.6572 8.8155 10.9983 8.60353C11.3393 8.39157 12.297 7.7071 12.5539 7.2346C12.8062 6.76652 12.6848 6.73119 12.7221 6.71353C12.7548 6.69145 12.7922 6.77977 12.7875 6.88575C12.7782 6.98731 12.6941 7.29643 12.7221 7.32734C12.7502 7.35825 13.1052 7.08446 13.2547 6.75327C13.4042 6.42208 13.5163 6.07764 13.5864 6.07764C13.6611 6.07764 13.4649 6.64287 13.3388 6.86367C13.2173 7.08446 13.0725 7.19486 13.1052 7.24343C13.1426 7.28759 13.507 7.00056 13.6331 6.7886C13.7546 6.57222 13.8714 6.38233 13.8947 6.42208C13.8576 6.68076 13.7497 6.9258 13.5817 7.13304C13.3855 7.345 13.1519 7.49956 13.1893 7.53047C13.222 7.5658 13.4883 7.60112 13.7639 7.42449C14.0442 7.24344 14.0723 6.9829 14.105 6.99614C14.1423 7.00939 14.0723 7.36708 13.806 7.58788C13.5397 7.80867 13.1893 7.83075 13.1986 7.87932C13.2173 7.92348 13.9601 7.67619 13.9461 7.7336C13.9321 7.78659 12.9837 8.13986 12.9744 8.17519C12.9744 8.20169 13.1379 8.21052 13.3949 8.15311C13.6471 8.10012 13.8901 7.91024 13.9228 7.9544C13.9321 8.01622 13.7406 8.16636 13.4509 8.23701C13.1566 8.30767 13.0118 8.4004 13.0024 8.42248C12.9978 8.44456 13.5257 8.36066 13.5257 8.38715C13.5257 8.41365 12.8343 8.54171 12.8296 8.57704C12.8202 8.60795 13.4836 8.44898 13.4743 8.48872C13.4556 8.51963 12.5726 8.76692 12.582 8.78017C12.5866 8.79783 13.3201 8.63003 13.3061 8.65652C13.2874 8.68744 12.0728 9.0098 12.0634 9.03188C12.0541 9.04954 13.1379 8.80225 13.1286 8.82433C13.1192 8.84641 12.568 8.97447 12.568 8.98772C12.568 9.00096 13.0118 8.92148 13.0024 8.94356C12.9978 8.96122 11.8812 9.23059 11.8579 9.27033C11.8345 9.31449 12.4372 9.15994 12.4278 9.23942C12.4185 9.31891 11.1337 9.72517 11.1291 9.6501C11.1197 9.57503 11.9093 9.38515 11.9046 9.36307C11.8952 9.34099 11.4514 9.40723 11.4421 9.36748C11.4374 9.32333 11.7364 9.23501 11.713 9.21734C11.6897 9.19526 11.4654 9.27917 11.4841 9.23059C11.5075 9.18202 11.9326 8.99655 11.9233 8.9833C11.9186 8.97005 11.7691 9.02746 11.7831 8.9833C11.8018 8.93473 12.7034 8.68744 12.6894 8.65652C12.6754 8.63003 12.2736 8.71835 12.2363 8.72718C12.2223 8.70068 12.7969 8.49755 12.7875 8.46222C12.7688 8.43131 12.4792 8.58145 12.4605 8.54171C12.4512 8.49755 12.9697 8.30767 12.937 8.27676C12.9043 8.24584 12.6707 8.35624 12.638 8.32533C12.6053 8.29442 13.1286 7.95439 13.0491 7.94556C12.9697 7.94115 12.8716 8.05155 12.8623 7.98089C12.8716 7.89257 13.2687 7.74685 13.18 7.67619C13.0398 7.63645 12.568 7.7071 12.3718 7.8175C12.1755 7.9279 11.5215 8.54171 11.3627 8.63886C11.2038 8.73159 10.6619 8.94797 10.5591 8.99213C10.4003 9.04512 10.3723 9.12461 10.2088 9.2041C9.91443 9.27917 9.9191 9.36307 9.77895 9.41164C9.72756 9.42489 9.19966 9.66335 9.19499 9.64569V9.64569ZM8.45686 9.9548C8.3681 9.99896 8.28868 10.1049 8.34007 10.1491C8.3681 10.2021 8.45686 10.0299 8.52694 10.0387L8.90067 10.0564C9.10156 10.0696 9.19966 10.0166 9.31178 10.0255C9.4239 10.0343 9.6715 9.96805 9.7883 9.96805C9.90509 9.96805 9.92845 9.98129 9.93779 9.93272C9.95181 9.88856 9.5734 9.91947 9.40522 9.91506C9.23703 9.90622 9.02681 9.94597 8.90067 9.94597C8.78388 9.94155 8.583 9.90622 8.45686 9.9548V9.9548Z" fill="#FFEC2D"/>
<path d="M9.01724 9.90181C9.01724 9.86523 8.98168 9.83557 8.93782 9.83557C8.89395 9.83557 8.8584 9.86523 8.8584 9.90181C8.8584 9.93839 8.89395 9.96805 8.93782 9.96805C8.98168 9.96805 9.01724 9.93839 9.01724 9.90181Z" fill="#FFEC2D"/>
<path fill-rule="evenodd" clip-rule="evenodd" d="M10.8815 9.77373C10.961 9.76048 11.1759 9.83114 11.3254 9.86205C11.5963 9.96361 12.1009 9.91504 12.1009 9.96361C12.1009 10.0122 12.0682 10.0696 11.9514 10.0784C11.8346 10.0873 11.5403 10.0343 11.5496 10.0343C11.5589 10.0343 11.7832 10.1358 11.7178 10.1623C11.6524 10.1888 11.4608 10.1049 11.4281 10.127C11.3954 10.1491 11.6057 10.1888 11.5683 10.2021C11.5403 10.2153 11.3954 10.1844 11.3487 10.1888C11.302 10.1977 11.3861 10.2462 11.33 10.2639C11.274 10.286 11.1805 10.2374 11.1432 10.2506C11.1011 10.2639 11.2273 10.339 11.1712 10.3478C11.1151 10.3566 10.9843 10.3125 10.9096 10.3036C10.8348 10.3036 10.9797 10.3743 10.9329 10.3831C10.8862 10.3875 10.7554 10.3257 10.7227 10.3257C10.69 10.3257 10.7227 10.414 10.676 10.414C10.6293 10.414 10.5732 10.339 10.5452 10.339C10.5172 10.339 10.5452 10.4273 10.4985 10.4273C10.4518 10.4273 10.4331 10.3345 10.3957 10.339C10.349 10.3478 10.3957 10.4582 10.3303 10.4494C10.2696 10.4449 10.2602 10.3345 10.2088 10.339C10.1621 10.3478 10.2182 10.4494 10.1714 10.4494C10.1247 10.4494 10.1154 10.3478 10.0687 10.339C10.022 10.3345 10.0406 10.4361 10.0126 10.4361C9.98458 10.4361 9.95655 10.339 9.93786 10.339C9.92385 10.339 9.93787 10.4361 9.8818 10.4273C9.82574 10.4185 9.82574 10.3213 9.81173 10.3257C9.79304 10.3346 9.79304 10.4052 9.75567 10.4052C9.71829 10.4052 9.71362 10.3345 9.69961 10.3434C9.68092 10.3478 9.62486 10.4361 9.58749 10.4229C9.54544 10.4096 9.59683 10.339 9.57814 10.339C9.55946 10.339 9.51274 10.3875 9.48471 10.3831C9.45668 10.3787 9.48471 10.3213 9.47537 10.3213C9.46602 10.3213 9.39595 10.3566 9.36324 10.3566C9.33054 10.3566 9.24178 10.4008 9.21842 10.361C9.19506 10.3169 9.27915 10.3169 9.29784 10.2771C9.31186 10.2374 9.25112 10.1182 9.31653 10.0784C9.37726 10.0343 9.57814 10.1358 9.87713 10.0652C10.4191 9.92829 10.8395 9.76931 10.8815 9.77373V9.77373Z" fill="#FFEC2D"/>
</g>
<defs>
<clipPath id="clip0_12291_242237">
<rect width="16" height="12" fill="white"/>
</clipPath>
</defs>
</svg>
