<svg width="16" height="18" viewBox="0 0 16 18" fill="none" xmlns="http://www.w3.org/2000/svg">
    <path d="M12.6717 12.7515L12.8606 11.7591L9.79931 12.8307L12.2483 14.9772L12.4274 14.0408C13.7529 14.3211 14.6355 14.7134 14.6355 15.1157C14.6355 15.8411 11.7631 16.5303 8.5748 16.6061V6.24925C9.66578 6.21628 10.8773 6.08438 11.9422 5.88984C11.978 5.88325 12.0138 5.87665 12.0497 5.87006L11.838 4.72919C10.8154 4.92373 9.63647 5.05233 8.57806 5.0886V4.14227C9.45084 3.88838 10.0891 3.07724 10.0891 2.11443C10.0891 0.950477 9.15449 0.00415039 8.00488 0.00415039C6.85528 0.00415039 5.92062 0.950477 5.92062 2.11443C5.92062 3.07724 6.56218 3.88838 7.43171 4.14227V5.0886C6.37329 5.05233 5.19438 4.92373 4.17179 4.72919L3.96011 5.87006C3.99593 5.87665 4.03175 5.88325 4.06757 5.88984C5.12925 6.08768 6.34398 6.21628 7.43497 6.24925V16.6094C4.24669 16.5336 1.37757 15.8444 1.37757 15.119C1.37757 14.7167 2.26013 14.3244 3.58885 14.0441L3.76471 14.9805L6.21372 12.834L3.15245 11.7591L3.34134 12.7515C1.53715 13.1703 0 13.899 0 15.119C0 17.4832 5.77407 18.0009 7.99837 18.0009C10.2227 18.0009 15.9967 17.4832 15.9967 15.119C16 13.899 14.4629 13.1736 12.6717 12.7515ZM7.06045 2.11113C7.06045 1.58686 7.48056 1.16151 7.99837 1.16151C8.51618 1.16151 8.93629 1.58686 8.93629 2.11113C8.93629 2.6354 8.51618 3.06075 7.99837 3.06075C7.48382 3.06075 7.06045 2.6354 7.06045 2.11113Z" fill="#FDB913"/>
</svg>
