<svg width="16" height="12" viewBox="0 0 16 12" fill="none" xmlns="http://www.w3.org/2000/svg">
<g clip-path="url(#clip0)">
<path d="M16 0.00012207H0V12.0001H16V0.00012207Z" fill="#F0F0F0"/>
<path d="M16 0H0V1.49987H16V0Z" fill="#D80027"/>
<path d="M16 3.49988H0V4.99975H16V3.49988Z" fill="#D80027"/>
<path d="M16 6.99976H0V8.49963H16V6.99976Z" fill="#D80027"/>
<path d="M16 10.4996H0V11.9995H16V10.4996Z" fill="#D80027"/>
<path d="M9 0.00012207H0V6.00012H9V0.00012207Z" fill="#2E52B2"/>
<path d="M3.50979 2.31165L3.36484 2.75757H2.896L3.27537 3.03302L3.13042 3.4789L3.50979 3.20345L3.88891 3.4789L3.744 3.03302L4.12337 2.75757H3.65449L3.50979 2.31165Z" fill="#F0F0F0"/>
<path d="M3.65449 4.36813L3.50979 3.92224L3.36484 4.36813H2.896L3.27537 4.64361L3.13042 5.0895L3.50979 4.81401L3.88891 5.0895L3.744 4.64361L4.12337 4.36813H3.65449Z" fill="#F0F0F0"/>
<path d="M1.67259 4.36813L1.52786 3.92224L1.38291 4.36813H0.914062L1.29343 4.64361L1.14848 5.0895L1.52786 4.81401L1.90702 5.0895L1.7621 4.64361L2.1414 4.36813H1.67259Z" fill="#F0F0F0"/>
<path d="M1.52786 2.31165L1.38291 2.75757H0.914062L1.29343 3.03302L1.14848 3.4789L1.52786 3.20345L1.90702 3.4789L1.7621 3.03302L2.1414 2.75757H1.67259L1.52786 2.31165Z" fill="#F0F0F0"/>
<path d="M3.50979 0.703247L3.36484 1.1492H2.896L3.27537 1.42468L3.13042 1.87057L3.50979 1.59508L3.88891 1.87057L3.744 1.42468L4.12337 1.1492H3.65449L3.50979 0.703247Z" fill="#F0F0F0"/>
<path d="M1.52786 0.703247L1.38291 1.1492H0.914062L1.29343 1.42468L1.14848 1.87057L1.52786 1.59508L1.90702 1.87057L1.7621 1.42468L2.1414 1.1492H1.67259L1.52786 0.703247Z" fill="#F0F0F0"/>
<path d="M5.49071 2.31165L5.3458 2.75757H4.87695L5.25629 3.03302L5.11141 3.4789L5.49071 3.20345L5.86991 3.4789L5.72496 3.03302L6.10433 2.75757H5.63548L5.49071 2.31165Z" fill="#F0F0F0"/>
<path d="M5.63548 4.36813L5.49071 3.92224L5.3458 4.36813H4.87695L5.25629 4.64361L5.11141 5.0895L5.49071 4.81401L5.86991 5.0895L5.72496 4.64361L6.10433 4.36813H5.63548Z" fill="#F0F0F0"/>
<path d="M7.61738 4.36813L7.47264 3.92224L7.3277 4.36813H6.85889L7.23819 4.64361L7.09327 5.0895L7.47264 4.81401L7.8518 5.0895L7.70686 4.64361L8.08623 4.36813H7.61738Z" fill="#F0F0F0"/>
<path d="M7.47264 2.31165L7.3277 2.75757H6.85889L7.23819 3.03302L7.09327 3.4789L7.47264 3.20345L7.8518 3.4789L7.70686 3.03302L8.08623 2.75757H7.61738L7.47264 2.31165Z" fill="#F0F0F0"/>
<path d="M5.49071 0.703247L5.3458 1.1492H4.87695L5.25629 1.42468L5.11141 1.87057L5.49071 1.59508L5.86991 1.87057L5.72496 1.42468L6.10433 1.1492H5.63548L5.49071 0.703247Z" fill="#F0F0F0"/>
<path d="M7.47264 0.703247L7.3277 1.1492H6.85889L7.23819 1.42468L7.09327 1.87057L7.47264 1.59508L7.8518 1.87057L7.70686 1.42468L8.08623 1.1492H7.61738L7.47264 0.703247Z" fill="#F0F0F0"/>
</g>
<defs>
<clipPath id="clip0">
<rect width="16" height="12" fill="white"/>
</clipPath>
</defs>
</svg>
