<svg xmlns="http://www.w3.org/2000/svg" width="16" height="18" fill="none"><path fill="#FDB913" d="m12.672 12.752.189-.993-3.062 1.072 2.45 2.146.178-.936c1.326.28 2.209.672 2.209 1.075 0 .725-2.873 1.414-6.061 1.49V6.25a23.423 23.423 0 0 0 3.367-.36l.108-.019-.212-1.14a22.266 22.266 0 0 1-3.26.359v-.947a2.108 2.108 0 0 0 1.511-2.028c0-1.164-.935-2.11-2.084-2.11-1.15 0-2.084.946-2.084 2.11 0 .963.641 1.774 1.51 2.028v.947a22.266 22.266 0 0 1-3.26-.36l-.21 1.141.107.02c1.061.198 2.276.326 3.367.36v10.36c-3.188-.076-6.057-.766-6.057-1.491 0-.402.882-.795 2.21-1.075l.177.936 2.449-2.146-3.062-1.075.19.992C1.536 13.171 0 13.9 0 15.12c0 2.364 5.774 2.882 7.998 2.882 2.225 0 7.999-.518 7.999-2.882.003-1.22-1.534-1.945-3.325-2.367ZM7.06 2.111c0-.525.42-.95.938-.95s.938.425.938.95c0 .523-.42.949-.938.949a.946.946 0 0 1-.938-.95Z"/></svg>