<svg width="24" height="24" viewBox="0 0 24 24" fill="none" xmlns="http://www.w3.org/2000/svg"><path d="M9.20319 3.9993L9.25024 3.99805L9.29599 3.99926C9.31843 4.00055 9.34091 4.00288 9.36337 4.00628L9.37945 4.01009C9.46486 4.02381 9.54974 4.05432 9.63063 4.10224L9.6825 4.13578L14.7528 7.70105L19.8199 4.13913C20.2876 3.81034 20.9213 4.10586 20.9943 4.6482L21.0012 4.75269V15.3852C21.0012 15.5945 20.9138 15.7926 20.7631 15.9334L20.6825 15.9988L15.1825 19.8652C14.9156 20.0528 14.5947 20.0371 14.3547 19.8883L9.24984 16.297L4.18016 19.8618C3.71245 20.1906 3.07871 19.8951 3.00577 19.3527L2.99884 19.2483V8.61572C2.99884 8.4064 3.08619 8.20832 3.23696 8.06755L3.31752 8.00216L8.81752 4.13578C8.88152 4.09079 8.94863 4.05749 9.01699 4.03491L9.13946 4.0069L9.20319 3.9993ZM19.5012 6.1967L15.5012 9.00861V17.8076L19.5012 14.9957V6.1967ZM8.49884 6.19335L4.49884 9.00526V17.8042L8.49884 14.9923V6.19335ZM10.0012 6.19335V14.9923L14.0012 17.8042V9.00526L10.0012 6.19335Z" fill="currentColor"></path></svg>