<svg xmlns="http://www.w3.org/2000/svg" width="24" height="24" fill="none"><path fill="currentColor" d="M6 7.8a.6.6 0 0 1 .6-.6H15a.6.6 0 1 1 0 1.2H6.6a.6.6 0 0 1-.6-.6ZM12.6 10.8a.6.6 0 1 0 0 1.2H15a.6.6 0 1 0 0-1.2h-2.4ZM12 15a.6.6 0 0 1 .6-.6H15a.6.6 0 1 1 0 1.2h-2.4a.6.6 0 0 1-.6-.6ZM6.6 10.8a.6.6 0 0 0-.6.6V15a.6.6 0 0 0 .6.6h3.6a.6.6 0 0 0 .6-.6v-3.6a.6.6 0 0 0-.6-.6H6.6Zm.6 3.6V12h2.4v2.4H7.2Z"/><path fill="currentColor" d="M2.4 6a2.4 2.4 0 0 1 2.4-2.4h12A2.4 2.4 0 0 1 19.2 6v1.2a2.4 2.4 0 0 1 2.4 2.4v6.6a3 3 0 0 1-3 3H5.4a3 3 0 0 1-3-3V6ZM18 6a1.2 1.2 0 0 0-1.2-1.2h-12A1.2 1.2 0 0 0 3.6 6v10.2A1.8 1.8 0 0 0 5.4 18h13.2a1.8 1.8 0 0 0 1.8-1.8V9.6a1.2 1.2 0 0 0-1.2-1.2v7.8a.6.6 0 1 1-1.2 0V6Z"/></svg>