<svg xmlns="http://www.w3.org/2000/svg" width="24" height="24" fill="none" class="d-block d-sm-inline-block mr-2"><path fill="currentColor" d="M13.2 12a2.4 2.4 0 0 1 2.4 2.4v1.8c0 2.466-2.506 4.2-6.6 4.2-4.094 0-6.6-1.734-6.6-4.2v-1.8A2.4 2.4 0 0 1 4.8 12h8.4Zm-8.4 1.2a1.2 1.2 0 0 0-1.2 1.2v1.8c0 1.689 1.894 3 5.4 3 3.506 0 5.4-1.311 5.4-3v-1.8a1.2 1.2 0 0 0-1.2-1.2H4.8Zm13.394 4.608-.09-.03c.053-.014.106-.03.158-.046a3.575 3.575 0 0 1-.068.076Zm-.31-4.73-.044.122h-1.245a3.598 3.598 0 0 0-.713-1.2h2.46l-.457 1.078ZM9 2.4a4.2 4.2 0 1 1 0 8.4 4.2 4.2 0 0 1 0-8.4Zm0 1.2a3 3 0 1 0 0 6 3 3 0 0 0 0-6Zm8.4 1.2a3 3 0 1 1 0 6 3 3 0 0 1 0-6Zm0 1.2a1.8 1.8 0 1 0 0 3.6 1.8 1.8 0 0 0 0-3.6ZM19 13.518l.48-1.13c.224-.529.762-.817 1.29-.707l.113.03.6.191c.594.19 1.05.7 1.197 1.34.35 1.52-.07 3.371-1.258 5.553-1.187 2.179-2.488 3.489-3.902 3.93-.55.171-1.14.047-1.583-.326l-.117-.108-.456-.457a1.294 1.294 0 0 1-.211-1.514l.067-.11.687-1.01c.27-.396.732-.584 1.177-.49l.121.034 1.268.422a4.835 4.835 0 0 0 1.265-1.445c.29-.498.479-1.002.568-1.514l.036-.256-1.055-1.002a1.288 1.288 0 0 1-.332-1.306l.045-.125Z"/></svg>