<svg xmlns="http://www.w3.org/2000/svg" width="24" height="24" fill="none"><path fill="currentColor" d="M6.5 4.25a.75.75 0 0 1 .75-.75H13V8a2 2 0 0 0 2 2h4.5v9.75a.75.75 0 0 1-.75.75H15V22h3.75A2.25 2.25 0 0 0 21 19.75V9.664c0-.464-.184-.909-.513-1.237l-5.914-5.914A1.75 1.75 0 0 0 13.336 2H7.25A2.25 2.25 0 0 0 5 4.25v7.335c.156-.055.325-.085.5-.085h1V4.25ZM18.44 8.5H15a.5.5 0 0 1-.5-.5V4.56l3.94 3.94Z"/><path fill="currentColor" d="M4.75 13.25a.75.75 0 0 1 .75-.75h5a.75.75 0 0 1 .75.75V15h.5A2.25 2.25 0 0 1 14 17.25v3.5A2.25 2.25 0 0 1 11.75 23h-7.5A2.25 2.25 0 0 1 2 20.75v-3.5A2.25 2.25 0 0 1 4.25 15h.5v-1.75Zm5 .75h-3.5v1h3.5v-1Zm-5.5 2.5a.75.75 0 0 0-.75.75v3.5c0 .414.336.75.75.75h7.5a.75.75 0 0 0 .75-.75v-3.5a.75.75 0 0 0-.75-.75h-7.5Z"/></svg>