<svg width="24" height="24" viewBox="0 0 24 24" fill="none" xmlns="http://www.w3.org/2000/svg"><path d="M6.5 4.25C6.5 3.83579 6.83579 3.5 7.25 3.5H13V8C13 9.10457 13.8954 10 15 10H19.5V19.75C19.5 20.1642 19.1642 20.5 18.75 20.5H15V22H18.75C19.9926 22 21 20.9926 21 19.75V9.66421C21 9.20009 20.8156 8.75497 20.4874 8.42678L14.5732 2.51256C14.245 2.18437 13.7999 2 13.3358 2H7.25C6.00736 2 5 3.00736 5 4.25V11.5854C5.15639 11.5301 5.32468 11.5 5.5 11.5H6.5V4.25ZM18.4393 8.5H15C14.7239 8.5 14.5 8.27614 14.5 8V4.56066L18.4393 8.5Z" fill="currentColor"></path><path d="M4.75 13.25C4.75 12.8358 5.08579 12.5 5.5 12.5H10.5C10.9142 12.5 11.25 12.8358 11.25 13.25V15H11.75C12.9926 15 14 16.0074 14 17.25V20.75C14 21.9926 12.9926 23 11.75 23H4.25C3.00736 23 2 21.9926 2 20.75V17.25C2 16.0074 3.00736 15 4.25 15H4.75V13.25ZM9.75 14H6.25V15H9.75V14ZM4.25 16.5C3.83579 16.5 3.5 16.8358 3.5 17.25V20.75C3.5 21.1642 3.83579 21.5 4.25 21.5H11.75C12.1642 21.5 12.5 21.1642 12.5 20.75V17.25C12.5 16.8358 12.1642 16.5 11.75 16.5H4.25Z" fill="currentColor"></path></svg>