<svg xmlns="http://www.w3.org/2000/svg" width="24" height="24" fill="none" class="color-blue-gray-80"><path fill="currentColor" d="M12.24 2.964a.748.748 0 0 0-.58.276l-.058.043a6.295 6.295 0 0 0-6.266 1.553A6.195 6.195 0 0 0 3.6 10.347l-.015.015-.958.951a2.108 2.108 0 0 0 0 2.995 2.136 2.136 0 0 0 1.793.6 2.129 2.129 0 0 0 1.883 1.559A2.13 2.13 0 0 0 8.32 18.41c.026.506.233 1.005.622 1.391.76.755 1.952.82 2.787.196l.387.384a2.151 2.151 0 0 0 3.028 0c.37-.368.577-.837.62-1.318a2.128 2.128 0 0 0 1.94-1.932 2.127 2.127 0 0 0 1.87-1.604 2.136 2.136 0 0 0 1.76-.605 2.108 2.108 0 0 0 0-2.995l-.833-.828.172-.667a5.952 5.952 0 0 0-.525-4.302 6.02 6.02 0 0 0-5.303-3.16h-1.607a4.264 4.264 0 0 0-.206-.005h-.791Zm2.925 4.945 3.464 3.442.003.004.014.014 1.625 1.614a.62.62 0 0 1 0 .88.63.63 0 0 1-.886 0L17.76 12.25a.756.756 0 0 0-1.064 0l-.016.016a.744.744 0 0 0 0 1.057l1.266 1.26a.62.62 0 0 1 0 .88.63.63 0 0 1-.819.059.756.756 0 0 0-.987.071.744.744 0 0 0-.062.981.62.62 0 0 1-.055.82.63.63 0 0 1-.83.05.756.756 0 0 0-.995.056.744.744 0 0 0-.064.99.63.63 0 0 1-.054.834.64.64 0 0 1-.9 0l-.372-.37.105-.104a2.108 2.108 0 0 0 0-2.995 2.13 2.13 0 0 0-1.4-.617 2.129 2.129 0 0 0-1.954-2.004 2.104 2.104 0 0 0-.617-1.325 2.136 2.136 0 0 0-1.793-.6 2.133 2.133 0 0 0-2.118-1.565A4.705 4.705 0 0 1 6.4 5.893a4.767 4.767 0 0 1 3.581-1.381L8.484 5.646a2.314 2.314 0 0 0-.44 3.253 2.333 2.333 0 0 0 3.258.442l1.889-1.432h1.974ZM9.389 6.842l3.139-2.378h.504a2.752 2.752 0 0 1 .187.005h1.626a4.52 4.52 0 0 1 3.982 2.37c.495.92.65 1.979.444 2.996L16.06 6.638a.75.75 0 0 0-.539-.229h-2.581a.75.75 0 0 0-.453.153l-2.09 1.583a.833.833 0 0 1-1.162-.157.814.814 0 0 1 .155-1.146Zm-3.354 7.955a.62.62 0 0 1 0-.88l.957-.951a.63.63 0 0 1 .886 0 .62.62 0 0 1 .008.872l-.008.008-.957.951-.009.008a.629.629 0 0 1-.877-.008Zm-.491-3.369a.618.618 0 0 1-.01.871l-.957.951a.63.63 0 0 1-.886 0 .62.62 0 0 1 0-.88l.958-.95a.63.63 0 0 1 .886 0l.009.008Zm5.348 7.315a.629.629 0 0 1-.886 0 .62.62 0 0 1 0-.88l.957-.951a.63.63 0 0 1 .886 0 .62.62 0 0 1 0 .88l-.957.95Zm-2.021-2.008a.629.629 0 0 1-.886 0 .62.62 0 0 1-.009-.872l.009-.009.957-.95.008-.01a.63.63 0 0 1 .878.01.62.62 0 0 1 0 .88l-.957.95Z"/></svg>