<svg xmlns="http://www.w3.org/2000/svg" width="24" height="24" fill="none" viewBox="0 0 24 25"><path fill="currentColor" d="M14.754 10.394c.966 0 1.75.783 1.75 1.75v4.748a4.501 4.501 0 1 1-9.002 0v-4.748c0-.967.783-1.75 1.75-1.75h5.502Zm0 1.5H9.252a.25.25 0 0 0-.25.25v4.748a3.001 3.001 0 1 0 6.002 0v-4.748a.25.25 0 0 0-.25-.25Zm-11.004-1.5 3.381-.001a2.737 2.737 0 0 0-.618 1.5H3.75a.25.25 0 0 0-.25.25v3.25a2.501 2.501 0 0 0 3.082 2.433c.085.504.24.984.453 1.432A4.001 4.001 0 0 1 2 15.393v-3.25c0-.966.784-1.75 1.75-1.75Zm13.125-.001h3.375c.966 0 1.75.784 1.75 1.75v3.25a4 4 0 0 1-5.03 3.866c.214-.448.369-.928.455-1.432a2.5 2.5 0 0 0 3.075-2.433v-3.25a.25.25 0 0 0-.25-.25h-2.757a2.738 2.738 0 0 0-.618-1.501Zm-4.875-7a3 3 0 1 1 0 6 3 3 0 0 1 0-6Zm6.5 1a2.5 2.5 0 1 1 0 5 2.5 2.5 0 0 1 0-5Zm-13 0a2.5 2.5 0 1 1 0 5 2.5 2.5 0 0 1 0-5Zm6.5.5a1.5 1.5 0 1 0 0 3 1.5 1.5 0 0 0 0-3Zm6.5 1a1 1 0 1 0 0 2 1 1 0 0 0 0-2Zm-13 0a1 1 0 1 0 0 2 1 1 0 0 0 0-2Z"/></svg>