<svg xmlns="http://www.w3.org/2000/svg" width="20" height="20" fill="none" viewBox="0 0 24 24"><path fill="currentColor" d="M19.259 5.02a2.752 2.752 0 0 1 2.748 2.582l.005.168v8.502a2.75 2.75 0 0 1-2.586 2.744l-.167.005H4.765a2.751 2.751 0 0 1-2.748-2.582l-.005-.168V7.77a2.75 2.75 0 0 1 2.585-2.744l.168-.005h14.494Zm1.25 5.972H3.512l.001 5.28c0 .647.493 1.179 1.124 1.243l.128.006h14.494a1.25 1.25 0 0 0 1.245-1.122l.006-.128v-5.279Zm-2.237 3.504a.75.75 0 0 1 .102 1.493l-.102.007h-2.503a.75.75 0 0 1-.102-1.493l.102-.007h2.503Zm.987-7.976H4.765A1.25 1.25 0 0 0 3.52 7.642l-.007.128v1.723h16.996l.001-1.723a1.25 1.25 0 0 0-1.123-1.244l-.128-.006Z"/></svg>