<svg xmlns="http://www.w3.org/2000/svg" width="10" height="10" fill="none"><path fill="currentColor" d="M10 7.898c0-.05 0-.1-.021-.15-.05-.149-.398-.305-.54-.376-.405-.227-.817-.447-1.215-.682-.184-.113-.412-.326-.632-.326-.433 0-1.065 1.285-1.449 1.285-.191 0-.44-.177-.61-.277C4.24 6.655 3.345 5.76 2.628 4.467c-.1-.17-.277-.419-.277-.61 0-.384 1.285-1.016 1.285-1.45 0-.22-.213-.447-.326-.631-.235-.398-.455-.81-.682-1.215C2.557.42 2.4.071 2.25.021 2.201 0 2.152 0 2.102 0a3.16 3.16 0 0 0-.987.22C.767.37.54.767.362 1.087.135 1.506 0 1.932 0 2.407c0 .661.27 1.258.49 1.861.156.434.348.853.59 1.243.745 1.208 2.201 2.664 3.409 3.41.39.24.81.433 1.243.589.603.22 1.2.49 1.86.49.476 0 .902-.135 1.321-.362.32-.178.718-.405.867-.753a3.16 3.16 0 0 0 .22-.987Z"/></svg>